/* XPM */
static char *_49e217e57c54a34bcf342043640249f7aRZk3Gruw9u9GOo[] = {
/* columns rows colors chars-per-pixel */
"32 32 4 1 ",
"  c #dddddd",
". c black",
"X c #B4B4B4",
"o c white",
/* pixels */
"                                ",
"                                ",
"                                ",
"                                ",
"                                ",
"                                ",
"                                ",
"                                ",
"                                ",
"                                ",
"      ........                  ",
"     .XoooooX..                 ",
"    .XoooooooX..                ",
"   .XoooooooooX.. ....     ...  ",
"  .XoooooooooooX..oooo. ...ooo. ",
"  .ooooooooooooo.oooooo.ooooooo.",
"  .ooooooooooooo. o..ooooooo... ",
"  .ooooooooooooo...  .ooo...    ",
"  .Xooooooooooo..     ...       ",
"   .Xooooooooo..                ",
"    .Xooooooo..                 ",
"     .........                  ",
"                                ",
"                                ",
"                                ",
"                                ",
"                                ",
"                                ",
"                                ",
"                                ",
"                                ",
"                                "
};
