/* XPM */
static char *f9540499234b427cf5a706cea2881e90B1N10HOgEOX3v9FV[] = {
/* columns rows colors chars-per-pixel */
"30 30 7 1 ",
"  c None",
". c gray25",
"X c gray53",
"o c #939393",
"O c gray81",
"+ c #E7E7E7",
"@ c white",
/* pixels */
"                              ",
"           ........           ",
"           ........           ",
"         ..++++++OO..         ",
"         ..++++++OO..         ",
"       ..++++++++OOOO..       ",
"       ..++++++++OOOO..       ",
"      .o+++@@++++++OOOX.      ",
"      .o+@@++++++++OOOX.      ",
"      .o+@@++++++++OOOX.      ",
"    ..+++@@++++++++++OOO..    ",
"    ..+++@@++++++++++OOO..    ",
"    ..+++++++++++++++OOO..    ",
"    ..+++++++++++++++OOO..    ",
"  ..+++++++++++++++++OOOOO..  ",
"  ..+++++++++++++++++OOOOO..  ",
"  ..+++++++++++++++++OOOOO..  ",
"  ..+++++++++++++++++OOOOO..  ",
"  ..+++++++++++++++++OOOOO..  ",
"  ..+++++++++++++++++OOOOO..  ",
"    ..+++++++++++++++OOO..    ",
"    ..+++++++++++++++OOO..    ",
"    ..+++++++++++++++OOO..    ",
"      .o+++++++++++OOOX.      ",
"      .o+++++++++++OOOX.      ",
"       ....++++++OO....       ",
"       ....++++++OO....       ",
"           ........           ",
"           ........           ",
"                              "
};
