/* XPM */
static char *a9ef6fb16ecd42e0c0108b38231c513bZ4qFu1aHYWFO3fz1[] = {
/* columns rows colors chars-per-pixel */
"32 32 6 1 ",
"  c None",
". c black",
"X c #464646",
"o c #990030",
"O c #ED1C24",
"+ c #B4B4B4",
/* pixels */
"                                ",
"                                ",
"            o Ooo O             ",
"             O  OO  O           ",
"          o ooOoO o O           ",
"        oO oOooOooOo oO         ",
"         oooO.....ooOo o O      ",
"      O oOo.........ooOo o      ",
"    OO oo....XXXXX....OOo       ",
"     OoO...XX.....XX...OoO      ",
"    O oO..X..+++++..X..oO O     ",
"    ooo..X..+.....+..X..oo o    ",
"   O Oo..X.+.......+.X..OOo o   ",
"    Oo..X.+.........+.X..oOo    ",
"   ooo..X.+.........+.X..Oo     ",
"   oOo..X.+.........+.X..OoO    ",
"    oO..X.+.........+.X..ooo    ",
"    oo..X.+.........+.X..oO     ",
"   O oO..X.+.......+.X..OO o    ",
"     Oo..X..+.....+..X..oO O    ",
"    oOoo..X..+++++..X..Oo O     ",
"     ooO...XX.....XX...oOo      ",
"    O  oO....XXXXX....oOo       ",
"      O OoO.........oOo O       ",
"       O OoOo.....OoooOo        ",
"        Oo OoooOoOoO O O        ",
"        O O oOOoOoooO           ",
"           O o Oo O  O          ",
"              o  O              ",
"             o                  ",
"                                ",
"                                "
};
