/* XPM */
static char *_8c88451b11c4cfecbe042537c31d4a32JEhoxPPPmWmAjna[] = {
/* columns rows colors chars-per-pixel */
"30 30 14 1 ",
"  c #111F12",
"X c #47243A",
"o c #16384A",
"O c #17394A",
"+ c #295166",
"@ c #7D7D41",
"# c #C4A17B",
"$ c #3A6881",
"% c #3B6983",
"& c #89729E",
"* c #B36297",
"= c #D77BBA",
"- c #E8BA9E",
"; c #D1D7B1",
/* pixels */
"                              ",
"                              ",
"                              ",
"                              ",
"                              ",
"                              ",
"                              ",
"                              ",
"                $$$$$         ",
"              $$%%$$$$$       ",
"             $$$%%%%$$$       ",
"            $$$$%%%$$$$$      ",
"            $$$$$$$  $$$      ",
"            $$$$$$$$   $      ",
"            $$%%$$$$   $      ",
"            o$$%$$$$$         ",
"   $$$$$  oo+%$$$$%%$$        ",
"  $&&&&$$$++%%$$%%%%$$$       ",
" $&-*-*&$%$$%$$$%%%%$$$$      ",
" $=#X@#=$$$$$$$$%%%$ $$$      ",
" $=#..#=$+$$$$$$$$$  $$$$     ",
" $=#@X#=$o$$$$$$$     $$$     ",
" $&*-*-&%o$$$$$$$$    $ $     ",
"  $&&&&$$     $$$$            ",
"   ++++$       $$$            ",
"  ooooo         $$$           ",
"  o oo         $$$$$          ",
"               $ $ $          ",
"                              ",
"                              "
};
