/* XPM */
static char *fb1d9f4207bc4bfd84c5ab433776054adLs4ywSRHNbnJ7l0[] = {
/* columns rows colors chars-per-pixel */
"36 33 34 1 ",
"  c #12274D",
". c #193256",
"X c #1F3C5E",
"o c #243B56",
"O c #264868",
"+ c #374863",
"@ c #2D5371",
"# c #325771",
"$ c #335A70",
"% c #345D79",
"& c #396176",
"* c #475165",
"= c #43697E",
"- c #526B74",
"; c #58737A",
": c #656479",
"> c #717B78",
", c #818779",
"< c #3B6983",
"1 c #4B7285",
"2 c #5A7A86",
"3 c #527791",
"4 c #627A82",
"5 c #72778C",
"6 c #6A8488",
"7 c #7A8D8A",
"8 c #768CA7",
"9 c #848786",
"0 c #878E80",
"q c #89958C",
"w c #909688",
"e c #999F8E",
"r c #919B99",
"t c #8696A9",
/* pixels */
"o5ttt5:5ttttt5:58tttt5*5tttttt5:+*::",
"#9rrr999rrrrr9993rrrr9>9rrrrrr99#>99",
"<eeeeeeeeeeeeeee1eeeeeeeeeeeeeee<eee",
"1eeeeeeeeeeeeeee7eeeeeeeeeeeeeee1eee",
"7eeeeeeeeeeeeeeeeeeeeeeeeeeeeeee7eee",
"eeeeeeeeeeeeeeeeeeeeeeeeeeeeeeeeeeee",
"eeeeeeeeeeeeeeeeeeeeeeeeeeeeeeeeeeee",
"eeeeeeeeeeeeeeeeeeeeeeeeeeeeeeeeeeee",
"eeeeeeeeeeeeeeeeeeeeeeeeeeeeeeeeeeee",
"eeeeeeeeeeeeeeeeeeeeeeeeeeeeeeeeeeee",
"eeeeeeeeeeeeeeeeeeeeeeeeeeeeeeeeeeee",
"eeeeeeeeeeeeeeeeqeeeeeeeeeeeeeeeeeee",
"qeeeeeeeeeeeeeee2eeeeeeeeeeeeeeeqeee",
"2eeeeeeeeeeeeeee<eeeeeeeeeeeeeee2eee",
"<eeeeeeeeeeeeeee<eeeeeeeeeeeeeee<eee",
"1eeeeeeqqqqqeeeq<qqqeeeqqqqqqeee%qqq",
"7eeeeee26666eee61666eee662666eeeX222",
"eeeeeee<7777eee77777eee77<777eee <<<",
"eeeeeee<eeeeeeeeeeeeeeeee<eeeeee <<<",
"eeeeeee<eeeeeeeeeeeeeeeee<eeeeee <<<",
"eeeeeee1eeeeeeeeeeeeeeeee<eeeeee <<<",
"eeeeeee7eeeeeeeeeeeeeeeee<eeeeee <<<",
"eeeeeeeeeeeeeeeeeeeeeeeee<eeeeee <<<",
"eeeeeeeeeeeeeeeeeeeeeeeee<eeeeee %%%",
"eeeeeeeeeeeeeeeeeeeeeeeee<eeeeee.OOO",
"eeeeeeeeeeeeeeeeeeeeeeeee<eeeeee@@@@",
"eeeeeeeqeeeeeeeeeeeeeeeee<eeeeee<<<<",
"eeeeeee2eeeeeeeeeeeeeeeee<eeeeee<<<<",
"eeeeeee<eeeeeeeeeeeeeeeee<eeeeee<<<<",
"eeeeeee<eeeeeeeeeeeeeeeee<eeeeee<<<<",
"eeeeeee<eeeeeeeeeeeeeeeee<eeeeee<<<<",
"eeqqqqq<qqqqqqqqqeeeeeeqq<qqqqqe<<<<",
",,----;&;;;;;;---,0wwww44=;;;--,$$$$"
};
