/* XPM */
static char *_a62d3bae9504612815df399bec03f4788XfBswOwrFkxKnM[] = {
/* columns rows colors chars-per-pixel */
"36 36 4 1 ",
"  c black",
". c #990030",
"X c #ED1C24",
"o c #C42F32",
/* pixels */
"o.oX XXo.oXX ooXoXo.oXoXX Xo.oXX  XX",
".ooX oo...oX Xoo.o...o.oX o...o  XXo",
"oXX o......oo Xoo.....oX  ..... ooo.",
"X  Xo......oX   Xooo.oX  Xo...o X..X",
" .oo.......oX X    XoX  Xo....oX o.X",
"X Xo......oo  oXooX    Xo......o Xo.",
"oX  o....oXX Xoo..oX  .o......oX  Xo",
".oX Xoo.oX  Xo.....o Xo......o.o   X",
"o.oo X     Xo....... Xo.....oX   X  ",
"Xo.o   X  Xo........ Xo.....o  Xoo. ",
"o.oX XXoX Xoo......o  o...... Xo..oX",
"XoX ooo.oX XXo.....oX Xoo.... Xo...o",
"oo  o....oX  Xo.....oX  Xo..o Xo...o",
".  .......oX   oo.ooXX   XooX o...oX",
"  o.oo.....oo.        XXX  XX ....oX",
"X    Xo.......o XXooXXoooX     o..oX",
"ooXXo Xo.....oX oo..oo...o XXo o...o",
"..oo.o o.....oX .........o Xo. Xo..o",
"....oX o.....o Xo......ooX o.. Xo.oX",
".....o Xo...oo Xo...o.oXX  ...o XoXX",
".....o Xoo.oXX XXo.oX    Xo...X     ",
"....oX XXXoo  X   oX  Xo.o.....X  XX",
"...oX        Xo.oX   Xo.......o  .oX",
"..ooX o.oXXXoo...oX  o.......oX Xo.o",
".oXX o.ooooo.....oX  .......oX  o...",
"oX  X   Xo........oX o.......o Xo...",
"   Xo.o  o.........o Xo....... o....",
"XXoo...o Xo...oo..oX XXo.....o .....",
"oo...... XXo.oX         Xoo.oX oo..o",
"o....oo X  XoX  ooXXooX   XoXX XXo.X",
"Xoo.oX  ooX    Xo.oo..oXX         XX",
"  Xoo  o.o.oX Xo.......ooXX  Xo.oX  ",
"XX XX Xo...oX Xo.........o   o...oXX",
"oo    o.....oX Xo.......oX Xo.....oo",
".oX Xo..ooo..o o....oo..oX Xo......o",
"..o o..oXXXo.oX ...oXXo..o o.....oXX"
};
